<svg width="1024" height="1024" viewBox="0 0 1024 1024" fill="none" xmlns="http://www.w3.org/2000/svg">
    <rect width="1024" height="1024" fill="#1E1E1E"/>
    <rect width="1024" height="1024" fill="#4DB7BA"/>
    <path fill-rule="evenodd" clip-rule="evenodd" d="M500 358.99C486.385 359.451 472.791 360.7 459.285 362.737C455.669 354.284 451.611 346.027 447.128 338C414.333 343.598 382.407 353.447 352.154 367.301C292.094 456.253 275.813 542.996 283.953 628.507C319.126 654.521 358.494 674.306 400.346 687C409.77 674.312 418.109 660.851 425.275 646.761C411.665 641.673 398.529 635.395 386.019 628C389.311 625.61 392.531 623.147 395.643 620.757C428.419 636.187 463.894 644.927 500 646.514V358.99ZM525 646.469C560.76 644.765 595.883 636.044 628.356 620.757C631.504 623.328 634.724 625.791 637.98 628C625.446 635.407 612.286 641.697 598.652 646.798C605.809 660.881 614.148 674.33 623.581 687C665.469 674.357 704.867 654.582 740.046 628.544C749.598 529.378 723.728 443.432 671.665 367.228C641.442 353.377 609.536 343.551 576.763 338C572.278 346.026 568.22 354.283 564.606 362.737C551.467 360.755 538.244 359.519 525 359.029V646.469ZM394.159 529.957C394.159 555.31 412.901 575.918 435.586 575.918C458.706 575.918 476.579 555.31 476.977 529.957C477.375 504.604 458.778 483.815 435.514 483.815C412.25 483.815 394.159 504.604 394.159 529.957ZM547.022 529.957C547.022 555.31 565.692 575.918 588.413 575.918C611.532 575.918 629.369 555.31 629.767 529.957C630.165 504.604 611.713 483.815 588.413 483.815C565.113 483.815 547.022 504.604 547.022 529.957Z" fill="white"/>
    <path fill-rule="evenodd" clip-rule="evenodd" d="M250 222H479.998C491.043 222 499.997 230.954 499.997 242V782.995C499.997 794.04 491.043 802.994 479.998 802.994H250C238.954 802.994 230 794.04 230 782.995V242C230 230.954 238.954 222 250 222ZM253 233.5H476.998C483.901 233.5 489.498 239.097 489.498 246V772.995C489.498 779.899 483.901 785.495 476.998 785.495H253C246.096 785.495 240.5 779.899 240.5 772.995V246C240.5 239.097 246.096 233.5 253 233.5Z" fill="white"/>
    <path d="M364.999 259C369.693 259 373.499 255.195 373.499 250.5C373.499 245.806 369.693 242 364.999 242C360.304 242 356.499 245.806 356.499 250.5C356.499 255.195 360.304 259 364.999 259Z" fill="white"/>
    <path d="M690.16 225.567C692.182 225.567 693.883 224.335 694.509 222.5H760.473C784.726 222.5 804.5 242.489 804.5 267.095V760.304C804.5 785.025 784.725 805.013 760.473 805.013H569.527C545.275 805.013 525.5 785.025 525.5 760.304V267.209C525.5 242.488 545.162 222.5 569.527 222.5H634.134C634.762 224.232 636.448 225.567 638.477 225.567H690.16ZM759.791 793.405C779.374 793.405 795.277 777.622 795.277 758.146V267.323C795.277 247.846 779.374 232.064 759.791 232.064H570.209C550.626 232.064 534.723 247.846 534.723 267.323V758.146C534.723 777.622 550.626 793.405 570.209 793.405H759.791Z" fill="white" stroke="white"/>
    <path fill-rule="evenodd" clip-rule="evenodd" d="M696.357 241H633.996C628.544 241 624 245.43 624 250.996C624 256.448 628.43 260.992 633.996 260.992H696.357C701.809 260.992 706.353 256.562 706.353 250.996C706.239 245.43 701.809 241 696.357 241ZM694.54 257.811C690.45 257.811 687.27 254.517 687.27 250.428C687.27 246.339 690.564 243.158 694.54 243.158C698.515 243.158 701.923 246.452 701.923 250.428C701.923 254.517 698.629 257.811 694.54 257.811Z" fill="white"/>
    <path d="M694.54 257.811C690.45 257.811 687.27 254.517 687.27 250.428C687.27 246.339 690.564 243.158 694.54 243.158C698.515 243.158 701.923 246.452 701.923 250.428C701.923 254.517 698.629 257.811 694.54 257.811Z" fill="white"/>
</svg>
